# xmcd
#
# Track frame offsets:
#	150
#	23132
#	46262
#	68058
#	90190
#	110243
#	136582
#	156838
#	176089
#	199645
#	221158
#	241988
#
# Disc length: 3532 seconds
# Revision: 0
# Processed by: cddbd v1.5.2PL0 Copyright (c) Steve Scherf et al.
# Submitted via: dBpowerAMP V12.0
#
DISCID=9e0dca0c
DTITLE=Various Artist - Quen di tinh yeu cu
DYEAR=2013
DGENRE=Asian Pop
TTITLE0=Tran Thai Hoa - Quen di tinh yeu cu
TTITLE1=Tran Thai Hoa - Mua dong sap den
TTITLE2=Tran Thai Hoa - Mot lan nao cho toi gap lai em
TTITLE3=Tran Thai Hoa - Tinh da vut bay
TTITLE4=Tran Thai Hoa - Nay em ve dau
TTITLE5=Tran Thai Hoa - Bai khong ten so 6
TTITLE6=Tran Thai Hoa - Toc em chua ua nang he
TTITLE7=Tran Thai Hoa - Trang ua sao mo
TTITLE8=Tran Thai Hoa - Danh thoi gia tu
TTITLE9=Tran Thai Hoa - Tren thang ngay da qua
TTITLE10=Tran Thai Hoa feat. Viet Tu - Bai hat cho nguoi ky nu
TTITLE11=Tran Thai Hoa - Buon oi chao mi
EXTD=
EXTT0=
EXTT1=
EXTT2=
EXTT3=
EXTT4=
EXTT5=
EXTT6=
EXTT7=
EXTT8=
EXTT9=
EXTT10=
EXTT11=
PLAYORDER=
